<svg width="75" height="79" viewBox="0 0 75 79" fill="none" xmlns="http://www.w3.org/2000/svg">
<g clip-path="url(#clip0_16_1646)">
<path d="M28.0916 71.0435C43.4223 75.7339 62.2879 68.4159 64.2498 52.6093C67.4846 26.4724 38.6796 15.9129 26.6242 33.5203C18.2818 45.7088 32.9883 60.7786 44.1844 49.9981" stroke="#E8F2FF" stroke-width="16" stroke-miterlimit="10" stroke-linecap="round"/>
<path d="M9.98811 28.8708C2.07545 41.8697 9.27468 58.5276 14.7552 61.4253" stroke="#DF6F1A" stroke-width="16" stroke-miterlimit="10" stroke-linecap="round"/>
<path d="M41.9144 6.54858C41.9144 6.54858 29.8103 7.40808 20.0735 14.9553" stroke="#3A65C7" stroke-width="16" stroke-miterlimit="10" stroke-linecap="round"/>
<path d="M41.5739 38.6446C41.5739 38.6446 50.2405 14.9307 62.8229 12.3931C75.4054 9.85555 53.0375 36.9501 55.8345 42.0335C58.6315 47.1168 71.4896 33.8478 74.0109 43.7279C76.5323 53.608 52.2025 50.5056 52.7619 58.1265C53.3213 65.7474 62.2716 69.9794 62.2716 69.9794" stroke="#343A40" stroke-width="2" stroke-miterlimit="10" stroke-linecap="round"/>
</g>
<defs>
<clipPath id="clip0_16_1646">
<rect width="75" height="79" fill="white"/>
</clipPath>
</defs>
</svg>
