<svg width="119" height="81" viewBox="0 0 119 81" fill="none" xmlns="http://www.w3.org/2000/svg">
<g clip-path="url(#clip0_16_1652)">
<path d="M98.86 40.86C98.86 62.52 81.3 80.08 59.64 80.08C37.98 80.08 18.88 61.76 18.88 40.1C18.88 18.44 40.28 0 61.94 0C83.6 0 98.86 19.2 98.86 40.86Z" fill="#E8F2FF"/>
<path d="M66.6 28.63C66.6 28.63 92.32 4.02998 96.23 5.70998C100.14 7.38998 119.71 29.19 118.03 32.55C116.35 35.91 93.99 58.27 91.75 57.71C89.51 57.15 65.47 31.43 66.59 28.64L66.6 28.63Z" fill="#3A65C7"/>
<path d="M21.14 68.9601C28.397 68.9601 34.28 63.0771 34.28 55.8201C34.28 48.563 28.397 42.6801 21.14 42.6801C13.883 42.6801 8 48.563 8 55.8201C8 63.0771 13.883 68.9601 21.14 68.9601Z" stroke="#DF6F1A" stroke-width="16" stroke-miterlimit="10" stroke-linecap="round"/>
<path d="M31 30.31C30.77 29.63 42.78 4.26003 76.09 13.09" stroke="#343A40" stroke-width="2" stroke-miterlimit="10" stroke-linecap="round"/>
</g>
<defs>
<clipPath id="clip0_16_1652">
<rect width="118.14" height="80.08" fill="white"/>
</clipPath>
</defs>
</svg>
