<svg width="68" height="84" viewBox="0 0 68 84" fill="none" xmlns="http://www.w3.org/2000/svg">
<g clip-path="url(#clip0_16_1663)">
<path d="M4.18629e-05 10.9858C4.18629e-05 10.9858 -0.38438 69.9103 4.98899 71.7945C10.3624 73.6872 64.8307 75.5714 67.1287 71.7945C69.4267 68.0176 66.7443 11.3559 63.6774 9.47167C60.6106 7.58743 1.53773 7.2089 4.18629e-05 10.9858Z" fill="#E8F2FF"/>
<path d="M19.52 37.525C19.52 37.525 33.6753 24.1923 35.8281 25.1008C37.9809 26.0093 48.7532 37.8278 47.8306 39.6448C46.908 41.4617 34.5979 53.5831 33.3678 53.2803C32.1376 52.9774 18.905 39.0391 19.52 37.525Z" fill="#3A65C7"/>
<path d="M17.1062 49.4804C17.1062 49.4804 31.2615 36.1478 33.4143 37.0562C35.567 37.9647 46.3394 49.7833 45.4168 51.6002C44.4942 53.4172 32.1841 65.5385 30.954 65.2357C29.7238 64.9329 16.4912 50.9946 17.1062 49.4804Z" fill="#DF6F1A"/>
<path d="M9.64478 0.841187L11.9257 49.3098" stroke="#343A40" stroke-width="2" stroke-miterlimit="10" stroke-linecap="round"/>
<path d="M56.5186 34.6902L58.7995 83.1588" stroke="#343A40" stroke-width="2" stroke-miterlimit="10" stroke-linecap="round"/>
</g>
<defs>
<clipPath id="clip0_16_1663">
<rect width="68" height="84" fill="white"/>
</clipPath>
</defs>
</svg>
