<svg width="90" height="86" viewBox="0 0 90 86" fill="none" xmlns="http://www.w3.org/2000/svg">
<g clip-path="url(#clip0_16_1676)">
<path d="M13.4901 12.8798C13.4901 12.8798 13.103 72.8291 18.5145 74.7461C23.926 76.6717 78.7812 78.5887 81.0955 74.7461C83.4098 70.9035 80.7084 13.2564 77.6198 11.3394C74.5311 9.41383 15.0387 9.03727 13.4901 12.8798Z" fill="#E8F2FF"/>
<path d="M6.02573 6.78952C6.02573 6.78952 5.80798 40.4685 8.86391 41.5446C11.9198 42.6208 42.9371 43.7043 44.2435 41.5446C45.5575 39.385 44.0258 7.00475 42.2763 5.9212C40.5344 4.8525 6.90421 4.63728 6.02573 6.78952Z" fill="#3A65C7"/>
<path d="M49.902 48.1975C49.902 48.1975 49.752 71.1604 51.8572 71.8942C53.9624 72.6279 75.3298 73.3667 76.2298 71.8942C77.135 70.4217 76.0798 48.3442 74.8746 47.6055C73.6746 46.8768 50.5072 46.7301 49.902 48.1975Z" fill="#DF6F1A"/>
<path d="M63.5274 61.1816C63.5274 61.1816 63.3811 83.6038 65.4029 84.3227C67.4247 85.0415 87.9438 85.7604 88.8041 84.3227C89.6645 82.8849 88.6579 61.3271 87.505 60.6083C86.3522 59.8894 64.1038 59.7439 63.5188 61.1816H63.5274Z" stroke="#343A40" stroke-width="2" stroke-miterlimit="10" stroke-linecap="round"/>
</g>
<defs>
<clipPath id="clip0_16_1676">
<rect width="90" height="86" fill="white"/>
</clipPath>
</defs>
</svg>
