<svg width="93" height="84" viewBox="0 0 93 84" fill="none" xmlns="http://www.w3.org/2000/svg">
<g clip-path="url(#clip0_16_1658)">
<path d="M63.28 0.169967C63.28 0.169967 -5.45002 37.43 0.349976 45.71C6.14998 53.99 85.64 90.42 85.64 78.83C85.64 67.24 74.87 -3.97003 63.28 0.169967Z" fill="#E8F2FF"/>
<path d="M11.71 74.01C10.04 73.3 39.51 41.98 44.95 39.56C50.39 37.14 61.27 83.68 59.46 83.08C57.65 82.48 20.17 77.64 11.71 74.01Z" fill="#DF6F1A"/>
<path d="M19.22 14.16C20.33 12.68 33.92 7.23003 40.16 4.79003C41.59 4.23003 43.12 5.36003 43 6.90003L41.59 24.85C41.47 26.37 42.97 27.5 44.4 26.97L66.57 18.7C68.02 18.16 69.53 19.32 69.38 20.86L67.75 37.51C67.58 39.29 69.57 40.45 71.03 39.42L91.78 32.44" stroke="#343A40" stroke-width="2" stroke-miterlimit="10" stroke-linecap="round"/>
</g>
<defs>
<clipPath id="clip0_16_1658">
<rect width="92.78" height="83.08" fill="white"/>
</clipPath>
</defs>
</svg>
