<svg width="79" height="86" viewBox="0 0 79 86" fill="none" xmlns="http://www.w3.org/2000/svg">
<g clip-path="url(#clip0_16_1682)">
<path d="M8.34705 53.4615C16.5179 88.6154 69.5493 84.3712 71.4877 55.9465C73.4632 26.9076 44.9812 27.7266 41.7166 42.0693" stroke="#3A65C7" stroke-width="16" stroke-miterlimit="10" stroke-linecap="round"/>
<path d="M50.2769 59.6043C42.5327 64.9188 15.9057 58.3571 26.2931 29.1692C35.716 2.68979 68.5755 13.6632 69.6884 14.1099" stroke="#E8F2FF" stroke-width="16" stroke-miterlimit="10" stroke-linecap="round"/>
<path d="M0.992355 36.3081C0.992355 36.3081 -1.4932 11.8949 24.8278 0.930786" stroke="#343A40" stroke-width="2" stroke-miterlimit="10" stroke-linecap="round"/>
<path d="M15.2101 16.8649C15.2101 16.8649 6.39939 31.1983 10.9995 38.3091C15.5904 45.4199 27.6565 24.6645 26.8867 17.1721C26.1169 9.67965 19.6062 10.629 15.2101 16.8649Z" fill="#DF6F1A"/>
<path d="M44.0167 74.8033C38.8693 75.3245 34.4547 73.2862 34.1486 70.252C33.8426 67.2178 37.7749 64.3418 42.913 63.8206C48.0603 63.2994 52.475 65.3377 52.781 68.3719C53.0871 71.4061 49.1547 74.2821 44.0167 74.8033Z" fill="#DF6F1A"/>
</g>
<defs>
<clipPath id="clip0_16_1682">
<rect width="79" height="86" fill="white"/>
</clipPath>
</defs>
</svg>
