<svg width="86" height="85" viewBox="0 0 86 85" fill="none" xmlns="http://www.w3.org/2000/svg">
<g clip-path="url(#clip0_16_1670)">
<path d="M63.28 0.169967C63.28 0.169967 -5.44999 37.43 0.350006 45.71C6.15001 53.99 85.64 90.42 85.64 78.83C85.64 67.24 74.87 -3.97003 63.28 0.169967Z" fill="#E8F2FF"/>
<path d="M34.23 7.40006C32.66 8.51006 31.56 10.1501 30.94 11.9701C27.35 22.5501 12.26 68.6201 20.18 72.0201C28.66 75.6501 47.86 -2.24994 34.23 7.41006V7.40006Z" fill="#3A65C7"/>
<path d="M47.54 32.9301C47.54 32.9301 36.06 58.0201 42.1 57.7101C48.14 57.4101 51.17 41.9901 56.3 41.6901C61.44 41.3901 48.14 84.3001 48.44 83.1001" stroke="#343A40" stroke-width="2" stroke-miterlimit="10" stroke-linecap="round"/>
<path d="M65.81 20.96C57.04 13.09 47.92 15.65 44.56 16.67C44.05 16.83 43.88 17.47 44.24 17.86L74.28 50.41C77.1 39.57 73.84 28.17 65.81 20.96Z" fill="#DF6F1A"/>
</g>
<defs>
<clipPath id="clip0_16_1670">
<rect width="85.63" height="84.12" fill="white"/>
</clipPath>
</defs>
</svg>
