<svg width="100" height="85" viewBox="0 0 100 85" fill="none" xmlns="http://www.w3.org/2000/svg">
<g clip-path="url(#clip0_16_1689)">
<path d="M89.2158 49.734C89.2158 69.2104 73.3689 85.0001 53.8219 85.0001C34.2749 85.0001 17.0382 68.527 17.0382 49.0506C17.0382 29.5743 36.3505 12.9933 55.8975 12.9933C75.4445 12.9933 89.2158 30.2576 89.2158 49.734Z" fill="#E8F2FF"/>
<path d="M79.9927 8.21856C79.9927 8.21856 51.295 31.9301 50.5911 38.9078C49.8872 45.8854 76.771 38.0715 92.266 18.0197C111.019 -6.24934 91.1921 -2.24796 79.9927 8.21856Z" fill="#DF6F1A"/>
<path d="M88.6923 34.9513C88.6923 34.9513 73.7568 48.3582 73.5312 52.1257C73.3056 55.9023 88.954 52.1078 95.5148 39.9598C103.375 25.4199 94.486 29.0706 88.6833 34.9513H88.6923Z" fill="#3A65C7"/>
<path d="M30.1417 80.9987C46.2901 80.9987 59.3809 67.9551 59.3809 51.8651C59.3809 35.775 46.2901 22.7314 30.1417 22.7314C13.9933 22.7314 0.902466 35.775 0.902466 51.8651C0.902466 67.9551 13.9933 80.9987 30.1417 80.9987Z" stroke="#343A40" stroke-width="2" stroke-miterlimit="10" stroke-linecap="round"/>
</g>
<defs>
<clipPath id="clip0_16_1689">
<rect width="100" height="85" fill="white"/>
</clipPath>
</defs>
</svg>
